<svg width="60" height="60" viewBox="0 0 60 60" fill="none" xmlns="http://www.w3.org/2000/svg">
<path d="M35.5181 35.0159H24.4884C23.5654 35.0159 22.8172 35.7641 22.8172 36.6871V58.3288C22.8172 59.2518 23.5654 60 24.4884 60H35.5181C36.4411 60 37.1893 59.2518 37.1893 58.3288V36.6871C37.1893 35.7641 36.4411 35.0159 35.5181 35.0159ZM33.847 56.6576H26.1596V38.3583H33.847V56.6576Z" fill="#AC9969"/>
<path d="M57.4107 21.8971H46.2973C45.3743 21.8971 44.6261 22.6453 44.6261 23.5683V58.3288C44.6261 59.2518 45.3743 60 46.2973 60H57.4107C58.3336 60 59.0818 59.2518 59.0818 58.3288V23.5683C59.0818 22.6454 58.3336 21.8971 57.4107 21.8971ZM55.7395 56.6576H47.9685V25.2395H55.7395V56.6576Z" fill="#AC9969"/>
<path d="M13.7093 43.121H2.59595C1.67296 43.121 0.924774 43.8692 0.924774 44.7922V58.3288C0.924774 59.2518 1.67296 60 2.59595 60H13.7093C14.6323 60 15.3805 59.2518 15.3805 58.3288V44.7922C15.3805 43.8694 14.6323 43.121 13.7093 43.121ZM12.0381 56.6576H4.26713V46.4634H12.0381V56.6576Z" fill="#AC9969"/>
<path d="M59.249 1.67602C58.9948 1.32575 58.595 1.11048 58.1627 1.09113L42.9549 0.00483593C42.0319 -0.0644167 41.2276 0.62779 41.1583 1.55063C41.0891 2.47362 41.7811 3.27794 42.7041 3.3472L53.4674 4.07811L33.6798 19.5578L18.5557 7.69236C17.9099 7.18088 16.9879 7.21639 16.3832 7.77585L0.841287 22.6492C0.180588 23.276 0.143482 24.3165 0.7578 24.9889C1.05592 25.3758 1.52326 25.5939 2.01122 25.5738C2.45201 25.5675 2.87248 25.3873 3.181 25.0724L17.6367 11.2015L32.5937 22.9833C33.2042 23.4721 34.0722 23.4721 34.6827 22.9833L56.0741 6.33738L55.2381 16.7166C55.2339 17.6241 55.9224 18.3849 56.8258 18.4713H56.9092C57.7707 18.4756 58.4942 17.8244 58.5804 16.9673L59.6667 2.84579C59.728 2.41093 59.5719 1.97366 59.249 1.67602Z" fill="#AC9969"/>
</svg>
