<svg xmlns="http://www.w3.org/2000/svg" fill="#00000000" viewBox="0 0 1366 600">
  <defs/>
  <path stroke="#00645F" stroke-linecap="round" stroke-linejoin="round" stroke-opacity=".15" stroke-width="6" d="M680.59 25.76c-28.84 5.09-53.44 7.02-83 7.02-14.43 0-34.47 3.15-48.13-1.82-14.07-5.11-34.19-5.2-49.17-5.2-27.23 0-53.26-4.69-80.79-4.69h-81.3c-63.16 0-125.78 2.35-189.15 2.35H61.37c-10.89 0-36.43-5.57-36.43 8.2 0 8.36 4.13 14.13 4.69 21.72.45 6.16-3.78 9.88 3.64 9.88 28.02 0 56.29 2.34 84.82 2.34h34.6c11.72 0 28.62-3.08 39.68 1.17 11.14 4.3 29.06 3.52 40.98 3.52h39.28c27.97 0 57.66 1.5 83.65-8.07 23.47-8.64 55.16-3.64 80-3.64 13.9 0 26.89.77 40.46 2.47 11.92 1.5 22.04 9.24 34.21 9.24 12.64 0 25.65 7.02 38.5 7.02h39.82c21.08 0 82.08-7.09 63.22 2.34M113.92 112.4c.61 26.05 11.4 53.32 15.88 79.09 1.76 10.13 1.95 24.28.39 34.47-.58 3.77-5.02 11.1-.13 13.92 8.98 5.2 22.99 3.64 33.04 3.64h64.65c18.3 0 24.38-1.66 28.5-20.55 3.4-15.69 3.25-31.64 5.71-47.35 1.16-7.39 16.13-53.45 8.85-53.86-20.99-1.16-43-4.22-63.22 3.64-15.82 6.16-34.55 3.39-51.52 3.39-14.54 0-25.82-4.69-39.8-4.69"/>
  <path stroke="#00645F" stroke-linecap="round" stroke-linejoin="round" stroke-opacity=".15" stroke-width="6" d="M125.63 152.2h79.62c18.96 0 38.01 4.69 56.2 4.69M411.3 124.1c6.1 29.77 11.71 58.84 11.71 88.98 0 11.95-5.01 25.76 9.37 25.76 9.3 0 14.95.4 23.42 4.16 18.25 8.12 37.04 7.55 56.71 7.55 16.27 0 47.98-11.68 59.06-23.42 13.88-14.69 3.33-50.12 8.33-69.46 7.33-28.36-35.26-16.5-51-21.34-19.95-6.14-43.03-6.45-63.74-7.54-17.06-.9-34.43 0-51.51 0"/>
  <path stroke="#00645F" stroke-linecap="round" stroke-linejoin="round" stroke-opacity=".15" stroke-width="6" d="M413.65 149.86c17.58 2.76 34.96 2.34 52.68 2.34 12.16 0 24.42 5.2 36.3 6.9 23 3.28 47.06 7.15 70.25 7.15M127.23 326.32c52.57 0 103.96-2.2 156.55-2.2 12.25 0 22.54-4.41 34.79-4.41h29.15c17.42 0 33.13-2.2 50.71-2.2H566c11.42 0 17.64-1.97 17.64 11.02 0 9.6-.68 21.11 3.3 29.89 1.77 3.88 14.05 68.48 10.79 69.2-16.32 3.63-33.93 6.07-50.47 8.95-5.9 1.03-12.36 4.19-18.25 4.4-8.19.31-16.6-.9-24.62 1.1-14.62 3.67-34.49 3.32-49.61 3.32h-39.81c-29.61 0-55.96-3.84-85.14-6.5-28.8-2.61-57.76-2.32-86.84-2.32-18.4 0-36.52 6.61-55.13 6.61H159.2c-7.06 0-17.54-3.25-25.23-4.53-13.07-2.18-11.15-21.88-11.15-31.97v-38.59c0-5.65-.2-11.37 0-17.02.22-6.03 4.41-9.92 4.41-15.93"/>
  <path stroke="#00645F" stroke-linecap="round" stroke-linejoin="round" stroke-opacity=".15" stroke-width="6" d="M155.9 354.99c10.66 0 20.52-1.66 30.86-2.2 6.77-.37 12.5-4.42 19.36-4.42 18.3 0 29.34 14.79 48.5 9.31 6.39-1.82 18.74-2.7 24.75-2.7 4.25 0 6.37-2.46 11.02-2.2 7.3.4 14.03 4.41 22.05 4.41M164.71 383.65c16.36 2.78 31.5 4.98 48.02 4.41 9.88-.34 18.79-4.41 29.16-4.41 15.5 0 61.8 4.41 46.3 4.41M166.92 421.13c12.72 0 27.78.85 40.18-2.7 9.12-2.6 21.16-8.32 30.38-8.32 8.05 0 38.2-.77 41.89 6.61M504.27 346.17c-32.2 0-32.35 29.8-19.85 51.69 2.27 3.96 14.6 13.11 18.87 14.33 9.32 2.67 20.52 6.4 29.64 1.84 10.6-5.3 19.84-13.31 19.84-25.97 0-10.25 2.92-21.92-5.5-28.66-6.68-5.34-14.4-8.69-22.18-10.9-8.69-2.49-18.12-10.75-27.44-4.54M356.54 357.2c9.29 1.8 18.2 1.25 26.46 5.38 4.15 2.08 14.34 3.43 18.86 3.43 11.44 0 19.76-4.4 31.85-4.4M358.74 388.06c25.3 9.63 50.1 11.02 77.18 11.02M360.95 423.34h63.94M246.3 489.48c2.67 11.92 4.4 19.55 4.4 31.98 0 4.5-2.72 21.65.5 24.86 2.87 2.88 18.61.5 22.78.5h71.41c16.8 0 31.54 6.6 48.14 6.6 10.8 0 15.99-2.98 25.97-6.6 12.34-4.5 26.84-1.71 39.57-4.54 5.9-1.31 14.19-30.77 14.33-36.87.36-15.46 1.73-22.54-16.54-22.54-6.65 0-12.34.38-18.74 2.2-5.5 1.58-12.64.7-17.64 2.7-11.07 4.43-24.02 4.03-35.52 7.23-25.24 7-53.21 2.16-79.01 5.39-16.42 2.05-34.26.12-50.84.12"/>
  <path stroke="#00645F" stroke-linecap="round" stroke-linejoin="round" stroke-opacity=".15" stroke-width="6" d="M261.73 518.15c16.35 6.08 33.51 4.4 50.71 4.4 13.44 0 26.91 2.21 40.67 2.21 11.25 0 20.13-6.28 30.99-8.7 13.21-2.93 24.11 4.3 36.38 4.3"/>
  <path stroke="#00645F" stroke-opacity=".15" stroke-width="6" d="M688 26.5h625.5V78H688M704.5 176h214m-214 0v89h214v-89h-214zm0 0v-31.5h214V176h-214zM1048 176.5h214m-214 0v89h214v-89h-214zm0 0V145h214v31.5h-214zM749 351.5h166.5H749zm0 29.5h166.5H749zm0 28h166.5H749zm214 0h169.5H963zm0-28h169.5H963zm0-29.5h169.5H963zM708 322h569.5v107H708V322z"/>
  <path stroke="#00645F" stroke-opacity=".15" stroke-width="6" d="M1200.5 406a30.5 30.5 0 100-61 30.5 30.5 0 000 61zM1113 520H853h260zm27-37.5v75H820.5v-75H1140z"/>
</svg>
