<svg width="60" height="60" viewBox="0 0 60 60" fill="none" xmlns="http://www.w3.org/2000/svg">
<path d="M59.7644 32.766V53.4979C59.7644 57.0836 56.8457 60 53.26 60H6.66063C3.07381 60 0.155579 57.0836 0.155579 53.4979V6.94905C0.155579 3.36371 3.07381 0.446599 6.66063 0.446599H27.4483C26.3291 1.5947 25.6633 1.81678 25.5 3.5H6.66063C5.47094 3.5 3.5 5.81118 3.5 7V53.7141C3.5 54.9029 5.31043 57 6.5 57H53C54.1896 57 56.5 54.6888 56.5 53.5L56.5845 35C58.2203 34.8431 58.5712 33.9285 59.7644 32.766ZM34.5031 6.52082H48.7138L25.7116 29.5237C24.4383 30.7962 24.4383 32.8614 25.7116 34.134C26.9844 35.4072 29.0488 35.4072 30.3217 34.1347L53.324 11.1317V25.3432C53.324 27.1437 54.7836 28.6031 56.5845 28.6031C57.4843 28.6031 58.2995 28.2394 58.8897 27.6487C59.4797 27.0572 59.8443 26.2433 59.8443 25.3432V3.25991C59.8444 1.45936 58.3856 0 56.5845 0H34.5031C32.7029 0 31.2432 1.45936 31.2432 3.26066C31.2425 5.06121 32.7029 6.52082 34.5031 6.52082Z" fill="#AC9969"/>
</svg>
