<svg width="60" height="60" viewBox="0 0 60 60" fill="none" xmlns="http://www.w3.org/2000/svg">
<g clip-path="url(#clip0)">
<path d="M24.267 33.4218C24.267 31.3353 20.4355 32.1487 20.4355 29.3193C20.4355 27.5743 21.8972 27.0557 23.1588 27.0557C23.9251 27.0557 25.3043 27.2562 25.3043 27.9044C25.3043 28.1406 25.1395 28.5764 24.7857 28.5764C24.4675 28.5764 24.1608 28.1287 23.1588 28.1287C22.2982 28.1287 21.6852 28.4587 21.6852 29.2012C21.6852 30.9462 25.5167 30.1561 25.5167 33.2922C25.5167 34.9782 24.3847 35.8035 22.8287 35.8035C21.2961 35.8035 20.2231 35.0015 20.2231 34.4124C20.2231 34.129 20.4708 33.7404 20.7656 33.7404C21.1899 33.7404 21.4728 34.6715 22.7816 34.6715C23.6303 34.6715 24.267 34.2705 24.267 33.4218V33.4218Z" fill="#665221"/>
<path d="M28.5585 30.8991H30.374C30.6336 30.8991 30.7869 31.1348 30.7869 31.4058C30.7869 31.6297 30.6569 31.8892 30.374 31.8892H28.5585V34.601H32.06C32.3191 34.601 32.4724 34.8601 32.4724 35.1668C32.4724 35.4259 32.3429 35.7088 32.06 35.7088H27.8632C27.5917 35.7088 27.3088 35.5674 27.3088 35.2964V27.5034C27.3088 27.2324 27.5917 27.0909 27.8632 27.0909H32.06C32.3429 27.0909 32.4724 27.3738 32.4724 27.6334C32.4724 27.9396 32.3191 28.1992 32.06 28.1992H28.5585V30.8991Z" fill="#665221"/>
<path d="M33.8993 33.1508V29.7199C33.8993 27.8101 35.0428 27.0909 36.5401 27.0909C38.0256 27.0909 39.1929 27.8101 39.1929 29.7199V33.1508C39.1929 35.0606 38.0256 35.7798 36.5401 35.7798C35.0432 35.7798 33.8993 35.0606 33.8993 33.1508V33.1508ZM37.9432 29.7199C37.9432 28.6826 37.4126 28.1992 36.5401 28.1992C35.6562 28.1992 35.149 28.6826 35.149 29.7199V33.1508C35.149 34.1881 35.6562 34.6715 36.5401 34.6715C37.4126 34.6715 37.9432 34.1881 37.9432 33.1508V29.7199Z" fill="#665221"/>
<path d="M44.5225 5.23959C44.5225 5.84842 44.0286 6.34235 43.4198 6.34235C42.8109 6.34235 42.317 5.84842 42.317 5.23959C42.317 4.63077 42.8109 4.13684 43.4198 4.13684C44.0286 4.13684 44.5225 4.63077 44.5225 5.23959V5.23959Z" fill="#665221"/>
<path d="M49.8084 5.23959C49.8084 5.84842 49.3145 6.34235 48.7057 6.34235C48.0968 6.34235 47.6029 5.84842 47.6029 5.23959C47.6029 4.63077 48.0968 4.13684 48.7057 4.13684C49.3145 4.13684 49.8084 4.63077 49.8084 5.23959Z" fill="#665221"/>
<path d="M55.0942 5.23959C55.0942 5.84842 54.6003 6.34235 53.9914 6.34235C53.3826 6.34235 52.8887 5.84842 52.8887 5.23959C52.8887 4.63077 53.3826 4.13684 53.9914 4.13684C54.6003 4.13684 55.0942 4.63077 55.0942 5.23959V5.23959Z" fill="#665221"/>
<path d="M27.3647 4.36072H5.96008C5.47485 4.36072 5.08118 4.75394 5.08118 5.23962C5.08118 5.72485 5.47485 6.11853 5.96008 6.11853H27.3647C27.8499 6.11853 28.2436 5.72485 28.2436 5.23962C28.2436 4.75394 27.8499 4.36072 27.3647 4.36072Z" fill="#665221"/>
<path d="M40.4553 21.2938C37.6455 18.4845 33.9102 16.9373 29.9373 16.9373C25.9639 16.9373 22.2285 18.4845 19.4188 21.2938C13.6194 27.0937 13.6194 36.5305 19.4188 42.3303C22.2285 45.1396 25.9639 46.6869 29.9373 46.6869C33.9102 46.6869 37.6455 45.1396 40.4553 42.3303C46.2552 36.5305 46.2552 27.0937 40.4553 21.2938ZM39.2125 41.087C36.7351 43.5649 33.441 44.929 29.9373 44.929C26.4335 44.929 23.1395 43.5645 20.6621 41.087C15.5475 35.9729 15.5475 27.6512 20.6621 22.5366C23.1395 20.0592 26.4335 18.6951 29.9373 18.6951C33.441 18.6951 36.7351 20.0592 39.2125 22.5366C44.3266 27.6512 44.3266 35.9729 39.2125 41.087Z" fill="#665221"/>
<path d="M59.1211 20.489C58.6359 20.489 58.2422 20.8822 58.2422 21.3679V56.9306C58.2422 57.6539 57.654 58.2421 56.9307 58.2421H54.7247L56.5508 56.4161C56.9179 56.049 57.1202 55.5605 57.1202 55.0414C57.1202 54.5223 56.9179 54.0339 56.5508 53.6668L48.3453 45.4614C47.5873 44.7033 46.3541 44.7033 45.596 45.4614L45.2129 45.8445L43.6707 44.3023C50.2959 37.0257 50.0945 25.7144 43.0641 18.6845C35.826 11.4463 24.0486 11.4463 16.81 18.6845C13.3035 22.1909 11.3727 26.8528 11.3727 31.8118C11.3727 36.7703 13.3035 41.4326 16.81 44.9391C20.4291 48.5581 25.183 50.3677 29.9373 50.3677C34.4174 50.3677 38.8976 48.7596 42.4278 45.5451L43.97 47.0873L43.5869 47.47C43.2198 47.8376 43.0174 48.3256 43.0174 48.8447C43.0174 49.3643 43.2198 49.8522 43.5869 50.2194L51.6092 58.2421H3.06931C2.34604 58.2421 1.75781 57.6539 1.75781 56.9306V49.2814C1.75781 48.7962 1.36414 48.4025 0.878906 48.4025C0.393677 48.4025 0 48.7962 0 49.2814V56.9306C0 58.623 1.37695 59.9999 3.06931 59.9999H56.9307C58.623 59.9999 60 58.623 60 56.9306V21.3679C60 20.8822 59.6063 20.489 59.1211 20.489V20.489ZM18.0528 43.6962C14.8787 40.5216 13.1305 36.3011 13.1305 31.8118C13.1305 27.3225 14.8787 23.1019 18.0528 19.9278C21.3295 16.6511 25.6334 15.0128 29.9373 15.0128C34.2412 15.0128 38.5451 16.6511 41.8213 19.9278C48.3742 26.4807 48.3742 37.1429 41.8213 43.6962C35.2684 50.2491 24.6062 50.2491 18.0528 43.6962V43.6962ZM44.7752 48.8452C44.7752 48.8099 44.7849 48.7586 44.8297 48.7133L46.8388 46.7047C46.8755 46.668 46.9231 46.6502 46.9707 46.6502C47.0183 46.6502 47.0659 46.668 47.1025 46.7047L55.3079 54.9101C55.3528 54.9549 55.3624 55.0062 55.3624 55.0414C55.3624 55.0767 55.3528 55.128 55.3079 55.1733L53.2988 57.1824C53.226 57.2547 53.1079 57.2547 53.0351 57.1824L44.8297 48.977C44.7849 48.9317 44.7752 48.8804 44.7752 48.8452Z" fill="#665221"/>
<path d="M56.9307 0H3.06931C1.37695 0 0 1.37695 0 3.06931V45.77C0 46.2556 0.393677 46.6489 0.878906 46.6489C1.36414 46.6489 1.75781 46.2556 1.75781 45.77V10.4791H58.2422V17.8294C58.2422 18.3151 58.6359 18.7083 59.1211 18.7083C59.6063 18.7083 60 18.3151 60 17.8294V3.06931C60 1.37695 58.623 0 56.9307 0V0ZM1.75781 8.72131V3.06931C1.75781 2.34604 2.34604 1.75781 3.06931 1.75781H56.9307C57.654 1.75781 58.2422 2.34604 58.2422 3.06931V8.72131H1.75781Z" fill="#665221"/>
</g>
<defs>
<clipPath id="clip0">
<rect width="60" height="60" fill="white"/>
</clipPath>
</defs>
</svg>
