<svg width="80" height="30" viewBox="0 0 80 30" fill="none" xmlns="http://www.w3.org/2000/svg">
<path d="M79.5112 14.2497L75.9917 10.9418V3.11713L79.5112 0V14.2497ZM59.6652 0L63.1847 3.30797V11.1326L59.6652 14.2497V0ZM70.6147 23.7602L70.1585 20.9611L72.9936 21.2474L79.5438 27.1635L80 29.899L77.1649 29.6763L70.6147 23.7602ZM79.5764 15.363V25.7322L76.0569 22.6469V18.6073L79.5764 15.363ZM59.7304 25.7322V15.363L63.2499 18.4483V22.4879L59.7304 25.7322ZM68.9202 23.7602L62.37 29.6763L59.5349 29.899L59.9911 27.1635L66.5412 21.2474L69.3764 20.9611L68.9202 23.7602Z" fill="white"/>
<path fill-rule="evenodd" clip-rule="evenodd" d="M21.3953 3.73737C19.5094 3.73737 16.7442 5.5381 16.7442 10.9246V18.9744C16.7442 25.6624 12.9978 29.899 8.37209 29.899C3.74641 29.899 0 25.6624 0 18.9744C0 17.9423 0.832959 17.1057 1.86047 17.1057C2.88797 17.1057 3.72093 17.9423 3.72093 18.9744C3.72093 24.3609 6.48615 26.1616 8.37209 26.1616C10.258 26.1616 13.0233 24.3609 13.0233 18.9744V10.9246C13.0233 4.23657 16.7697 0 21.3953 0C26.021 0 29.7674 4.23657 29.7674 10.9246C29.7674 11.9567 28.9345 12.7933 27.907 12.7933C26.8795 12.7933 26.0465 11.9567 26.0465 10.9246C26.0465 5.5381 23.2813 3.73737 21.3953 3.73737Z" fill="white"/>
<path fill-rule="evenodd" clip-rule="evenodd" d="M47.4419 3.73737C45.5559 3.73737 42.7907 5.5381 42.7907 10.9246V18.9744C42.7907 25.6624 39.0443 29.899 34.4186 29.899C29.7929 29.899 26.0465 25.6624 26.0465 18.9744C26.0465 17.9423 26.8795 17.1057 27.907 17.1057C28.9345 17.1057 29.7674 17.9423 29.7674 18.9744C29.7674 24.3609 32.5327 26.1616 34.4186 26.1616C36.3045 26.1616 39.0698 24.3609 39.0698 18.9744V10.9246C39.0698 4.23657 42.8162 0 47.4419 0C52.0675 0 55.8139 4.23657 55.8139 10.9246C55.8139 11.9567 54.981 12.7933 53.9535 12.7933C52.926 12.7933 52.093 11.9567 52.093 10.9246C52.093 5.5381 49.3278 3.73737 47.4419 3.73737Z" fill="white"/>
</svg>
