<svg xmlns="http://www.w3.org/2000/svg" width="43" height="16" fill="none"><defs/><path fill="#fff" d="M0 0h43v16H0z"/><path fill="#001413" d="M42.737 7.626l-1.892-1.77V1.667L42.738 0v7.626zM32.07 0l1.892 1.77v4.187L32.07 7.626V0zm5.885 12.715l-.245-1.498 1.524.153 3.52 3.166L43 16l-1.524-.12-3.52-3.165zm4.817-4.494v5.55l-1.891-1.652V9.957l1.891-1.736zm-10.667 5.55V8.22l1.892 1.651v2.162l-1.892 1.736zm4.94-1.056l-3.521 3.166L32 16l.245-1.464 3.52-3.166 1.525-.153-.245 1.498z"/><path stroke="#000" stroke-linecap="round" stroke-width="2" d="M1 10.154c0 6.461 7 6.461 7 0V5.846c0-6.461 7-6.461 7 0M15 10.154c0 6.461 7 6.461 7 0V5.846c0-6.461 7-6.461 7 0"/></svg>