<svg width="96" height="30" viewBox="0 0 96 30" fill="none" xmlns="http://www.w3.org/2000/svg">
<path d="M95.0658 14.2979L90.8578 10.9787V3.12766L95.0658 0V14.2979ZM71.3374 0L75.5454 3.31915V11.1702L71.3374 14.2979V0ZM84.4289 23.8404L83.8835 21.0319L87.2732 21.3192L95.1048 27.2553L95.6502 30L92.2605 29.7766L84.4289 23.8404ZM95.1437 15.4149V25.8191L90.9357 22.7234V18.6702L95.1437 15.4149ZM71.4153 25.8191V15.4149L75.6233 18.5106V22.5638L71.4153 25.8191ZM82.4029 23.8404L74.5713 29.7766L71.1816 30L71.7271 27.2553L79.5586 21.3192L82.9483 21.0319L82.4029 23.8404Z" fill="white"/>
<path fill-rule="evenodd" clip-rule="evenodd" d="M25.5809 3.75C23.326 3.75 20.0198 5.55681 20.0198 10.9615V19.0385C20.0198 25.7491 15.5405 30 10.0099 30C4.47931 30 0 25.7491 0 19.0385C0 18.0029 0.995909 17.1635 2.22442 17.1635C3.45294 17.1635 4.44885 18.0029 4.44885 19.0385C4.44885 24.4432 7.75502 26.25 10.0099 26.25C12.2648 26.25 15.571 24.4432 15.571 19.0385V10.9615C15.571 4.25088 20.0503 0 25.5809 0C31.1115 0 35.5908 4.25088 35.5908 10.9615C35.5908 11.9971 34.5949 12.8365 33.3664 12.8365C32.1378 12.8365 31.1419 11.9971 31.1419 10.9615C31.1419 5.55681 27.8358 3.75 25.5809 3.75Z" fill="white"/>
<path fill-rule="evenodd" clip-rule="evenodd" d="M56.7228 3.75C54.4679 3.75 51.1618 5.55681 51.1618 10.9615V19.0385C51.1618 25.7491 46.6824 30 41.1518 30C35.6212 30 31.1419 25.7491 31.1419 19.0385C31.1419 18.0029 32.1378 17.1635 33.3664 17.1635C34.5949 17.1635 35.5908 18.0029 35.5908 19.0385C35.5908 24.4432 38.897 26.25 41.1518 26.25C43.4067 26.25 46.7129 24.4432 46.7129 19.0385V10.9615C46.7129 4.25088 51.1922 0 56.7228 0C62.2534 0 66.7327 4.25088 66.7327 10.9615C66.7327 11.9971 65.7368 12.8365 64.5083 12.8365C63.2798 12.8365 62.2839 11.9971 62.2839 10.9615C62.2839 5.55681 58.9777 3.75 56.7228 3.75Z" fill="white"/>
</svg>
