<svg xmlns="http://www.w3.org/2000/svg" width="300" height="200" fill="none">
  <defs/>
  <g fill="#E4DCCE" clip-path="url(#clip0)">
    <path d="M54.43 68.41C54.29 68 52.97 64.3 50 64.3h-.31c-.98-1.68-2.28-2.6-3.73-2.6-1.76 0-4.06.61-5.24.96l-1.82-1.21-2.66-9L40.79 57c1.67 1.67 2.92 2.17 4.97 1.49.94-.33 2.13-.35 2.86-1.03a1.17 1.17 0 000-1.66L29.84 37.02a1.17 1.17 0 00-1.66 0c-.22.22.13.04.13.36.34.34.26.38.48.6l18.38 18.38c-.22.12-1.64.34-1.89.42-1.18.37-2.26.05-3.29-.98l-5.52-5.52c-.82-.82-2.2-.07-1.98 1.05l2.78 9.98c.03.15-.08.58 0 .71.09.13.23.61.36.7l5.65 3.19c.15.1.96 1.03 1.13 1.05.18.02.47.07.64.01-.02-.02 4.14-1.3 5.73-1.25.66 0 1.6 1.95 2.03 2.68l-9.31 3.38-10.87-6.62-7.38-11.62c-.04-.08-.23-.72-.3-.78l-5.3-5.56c-.22-.22-.28-.58-.59-.58a1.17 1.17 0 00-.82 2l5.43 5.43 7.66 12.05c.1.15.23.28.39.37l11.05 6.63a1.17 1.17 0 00.97.1l9.95-3.3a1.17 1.17 0 00.74-1.49zm-9.77-3.12l-1.32-.89c.94-.2 1.9-.35 2.62-.35.42 0 .8.27 1.11.61-.98.21-1.87.46-2.41.63zM47.77 35.8l.95 1.2-.4.94-1.52.19a1.17 1.17 0 00-1.03 1.16v4.57a1.17 1.17 0 001.03 1.16l1.53.2.39.92-.95 1.22a1.17 1.17 0 00.1 1.55l3.22 3.23a1.17 1.17 0 001.55.1l1.22-.95.93.38.19 1.53a1.17 1.17 0 001.16 1.03h4.57a1.17 1.17 0 001.16-1.03l.2-1.53.92-.38 1.22.94a1.17 1.17 0 001.55-.1l3.23-3.22a1.17 1.17 0 00.1-1.55l-.96-1.22.39-.93 1.53-.19a1.17 1.17 0 001.03-1.16v-4.57a1.17 1.17 0 00-1.03-1.16l-1.53-.2-.39-.92.95-1.22a1.17 1.17 0 00-.1-1.55l-3.22-3.23a1.17 1.17 0 00-1.55-.1l-1.22.96-.93-.39-.19-1.53a1.17 1.17 0 00-1.16-1.03h-4.57a1.17 1.17 0 00-1.16 1.03l-.2 1.53-.92.39-1.22-.95a1.17 1.17 0 00-1.55.1l-3.23 3.22a1.17 1.17 0 00-.1 1.55zm4.4-3.92l.94.73a1.17 1.17 0 001.17.16l1.07-.6a1.17 1.17 0 00.71-.93l.15-1.18 4.62.2.2.93a1.17 1.17 0 00.72.94l.8.44a1.17 1.17 0 001.17-.16l.82-.81 3.86 3.86-.81.82a1.17 1.17 0 00-.16 1.16l.28.5a1.17 1.17 0 00.94.72l1.18.15.08 5.5-1.18.14a1.17 1.17 0 00-.94.71l-.31.8a1.17 1.17 0 00.15 1.17l.73.94-3.55 3.55-.94-.73a1.17 1.17 0 00-1.17-.16l-.71.01a1.17 1.17 0 00-.72.94l-.14 1.18-5.37.01-.14-1.18a1.17 1.17 0 00-.72-.94l-.5-.28a1.17 1.17 0 00-1.16.16l-.94.73-3.66-3.66.73-.94a1.17 1.17 0 00.16-1.17l-.29-.72a1.17 1.17 0 00-.94-.72l-1.17-.14-.16-4.83 1.18-.14a1.17 1.17 0 00.94-.72l.74-1.1a1.17 1.17 0 00-.16-1.17l-.73-.93 3.24-3.24z"/>
    <path d="M54.67 45.33a5.3 5.3 0 107.5-7.51 5.3 5.3 0 00-7.5 7.51zm4.17-7.7c.59 0 1.28.02 1.77.35a9.13 9.13 0 011.76 2.47c.23.55.03 1.45-.08 2.02a4.42 4.42 0 01-.98 1.87c-.41.42-1.41.99-1.99 1.1-.57.11-1.95.08-2.5-.15-.53-.22-1.59-1.43-1.91-1.92a3.77 3.77 0 01-.65-1.83c0-.4.46-1.7.6-2.06.16-.36.87-.87 1.15-1.15.28-.27 1.06-.56 1.42-.71.36-.15 1.02 0 1.4 0zM73.2 52.41a2.84 2.84 0 00-1.04 1.04 4.73 4.73 0 01-2.02 1.91 2.85 2.85 0 00-.76.86.73.73 0 00-.08.24c0 .07.01.12.05.16.03.03.08.05.15.04.07 0 .15-.03.24-.08.34-.16.7-.39 1.08-.67a10.39 10.39 0 002.73-3.14c.05-.1.07-.17.08-.24 0-.07 0-.12-.04-.15-.03-.04-.09-.05-.15-.05a.73.73 0 00-.25.08zM78.64 52.28a.83.83 0 00.07-.3c0-.09-.02-.16-.07-.2-.04-.05-.11-.08-.2-.08-.09 0-.2.03-.3.07A2.82 2.82 0 0076.9 53c-.27.65-.66 1.34-1.16 2.04A15.9 15.9 0 0172 58.79c-.7.5-1.39.89-2.03 1.16-.23.1-.49.27-.72.5-.23.23-.4.49-.5.72-.1.23-.1.4 0 .5.09.1.27.1.5 0 .87-.36 1.8-.89 2.74-1.55a21.52 21.52 0 005.09-5.09c.67-.94 1.2-1.87 1.56-2.75zM43.38 30.65c.05.05.14.06.27.02.12-.04.27-.12.42-.24a2.91 2.91 0 00.75-.85c.07-.16.17-.32.3-.5a4.73 4.73 0 011.72-1.42 2.82 2.82 0 00.75-.85c.04-.1.07-.18.08-.25 0-.06-.01-.12-.05-.15-.03-.03-.08-.05-.15-.04a.73.73 0 00-.24.08c-.34.16-.7.39-1.08.67a10.39 10.39 0 00-2.73 3.14.73.73 0 00-.08.24c0 .07 0 .12.04.15zM38.33 31.26c.07.07.19.09.34.05.16-.04.34-.13.52-.26.19-.13.37-.3.53-.48.15-.18.27-.37.34-.54.27-.64.66-1.34 1.16-2.03a15.9 15.9 0 013.75-3.76c.7-.5 1.4-.89 2.03-1.15.23-.1.5-.28.72-.51.23-.23.41-.49.5-.72.1-.23.1-.4 0-.5-.09-.1-.27-.1-.5 0-.87.36-1.8.89-2.74 1.55a21.52 21.52 0 00-5.09 5.1c-.67.93-1.2 1.87-1.56 2.74a.82.82 0 00-.07.3c0 .1.02.16.07.2zM158.04 76.71a1.3 1.3 0 00-.32-1.14l-2.42-1.88 24.11-24.11c.78-.78 1.32-1.49.75-2.06l-27.68-27.68c-.57-.57-1.35.04-2.13.82L126.31 44.7l-1.88-2.42a1.3 1.3 0 00-1.14-.32c-.46.07-.92.32-1.3.69l-.93.93c-3.34 3.35-3.34 7.59-.86 10.06l26.16 26.16c2.47 2.48 6.71 2.48 10.06-.86l.93-.94c.37-.37.62-.83.69-1.29zm-15.6-25.67c-.66-2.73 1.02-5.91 3.47-8.45 1.9-1.97 8.33-5.32 9.6-3.34l-6.3 5c-1.8 1.8-2.17 4.35-.84 5.69l1.69 1.69c1.33 1.33 3.88.95 5.68-.85l5.01-6.3c2.52.79-1.2 8-3.09 9.88-2.56 2.56-5.73 4.07-8.51 3.4-.6-.15-3.04.1-3.59.66l-2.9 2.9-3.84-4.12 2.76-2.76c.55-.55 1-2.8.85-3.4zm9.33-29.68l26.87 26.87-24.54 24.54-9.98-9.98 2.9-2.9c3.77.46 8.2-1.29 11.54-4.64 3.8-3.8 5.52-8.88 4.35-12.93-.14-.5-.55-.8-1.1-.84a2.24 2.24 0 00-1.62.7l-5.6 7.47c-.25.25-2.63.9-2.82.7l-2.12-2.12c-.2-.19.45-2.57.7-2.83l7.46-5.6c.47-.46.73-1.07.7-1.61a1.15 1.15 0 00-.83-1.1 11.07 11.07 0 00-6.6.32c-2.38.81-4.65 2.27-6.55 4.24-3.2 3.3-4.86 7.63-4.41 11.32l-2.91 2.91-9.84-10.12 24.4-24.4zm-3.54 57.98l-27.57-27.57c-1.22-1.22-1.07-6.72 2.75-7.7l32.25 32.8c-1.3 3.66-6.21 3.69-7.43 2.47zM228.73 151.1l-29.83-29.83a3.13 3.13 0 00-4.42 0l-18.79 18.79a3.13 3.13 0 000 4.42l11.39 11.38-2.95 1.48-1.8-1.82a.78.78 0 00-1.11 0l-1.1 1.1-4.98-4.96a.78.78 0 00-1.33.55c0 .2.08.4.23.55l24.3 24.3a.78.78 0 001.1 0 .78.78 0 000-1.1l-6.07-6.07 1.1-1.1a.79.79 0 000-1.11l-1.8-1.81 1.47-2.95 11.38 11.39a3.13 3.13 0 004.42 0l18.79-18.79a3.13 3.13 0 000-4.42zm-35.91 17.13l-.55.55-11.05-11.05.55-.55 11.05 11.05zm-7.52-9.73l2.94-1.47 4.73 4.72-1.47 2.95-6.2-6.2zm23.54 14.7a1.56 1.56 0 01-2.21 0l-29.83-29.83a1.57 1.57 0 010-2.2l1.1-1.11 32.04 32.04-1.1 1.1zm-16.6-30.96l-5.18 4.77-.64-.65 4.77-5.18 1.05 1.06zm.13-2.08l2.57-1.84.17.16-1.84 2.58-.9-.9zm3.76-2.87c-.6-.6-.34-1.86.56-2.76.56-.56 1.97-.81 3.07-.87-.05 1-.26 2.47-.86 3.08-.9.9-2.17 1.15-2.77.55zm7.12 4.91l-.07.2-.42.42-2.2-2.21.41-.42.2-.07 2.08 2.08zm-.42-2.63l1.46-.49-.49 1.46-.97-.97zm-1.17 4.35l-8.77 8.77-.07.08-2.22-2.22.08-.07 8.77-8.77 2.2 2.21zm7.18 2.77l1.66 1.65-1.1 1.1-.56-.54a.78.78 0 00-1.34.55c0 .2.09.4.23.55l.56.55-1.1 1.1-1.67-1.65a.78.78 0 00-1.1 1.1l1.66 1.66-1.1 1.1-.56-.55a.78.78 0 00-1.1 0 .78.78 0 000 1.11l.55.55-1.1 1.1-1.67-1.65a.78.78 0 10-1.1 1.1l1.66 1.66-2.21 2.21-3.87-3.87 13.26-13.25 3.87 3.86-1.1 1.1-1.67-1.65a.78.78 0 00-1.1 1.1zm0 13.25l-4.35 4.35-.07.08-2.21-2.22.07-.06 4.35-4.36 2.2 2.21zm-1.1-3.31l.42-.42 3.31-1.1-1.1 3.3-.43.43-2.2-2.21zm3.3 14.36l-5.52-5.53a.75.75 0 00.07-.06l6.01-6a.78.78 0 00.19-.31l1.66-4.98a.77.77 0 00-.2-.8.77.77 0 00-.8-.18l-4.96 1.65a.78.78 0 00-.3.2l-6.02 6a.75.75 0 00-.06.07l-.56-.55 13.81-13.81a.78.78 0 000-1.1l-4.97-4.98a.78.78 0 00-1.1 0l-13.81 13.81-.56-.56a.75.75 0 00.07-.06l10.43-10.43a.79.79 0 00.19-.3l1.66-4.98a.78.78 0 00-1-.99l-4.97 1.66a.79.79 0 00-.3.2l-10.43 10.42a.75.75 0 00-.06.07l-1.34-1.34 5.73-5.27.04-.04.01-.01a.52.52 0 00.06-.07l2.55-3.58c1.13.16 2.44-.3 3.44-1.3 1.42-1.41 1.35-4.63 1.33-5a.78.78 0 00-.75-.75c-.36 0-3.58-.08-5 1.34-1 1-1.45 2.3-1.3 3.44l-3.57 2.55-.07.05-.01.02-.04.04-5.28 5.73-6.3-6.3 16.57-16.58a1.56 1.56 0 012.21 0l29.83 29.83a1.56 1.56 0 010 2.21l-16.57 16.57z"/>
    <path d="M182.32 145.58l-3.31-3.31a.78.78 0 00-1.1 0 .78.78 0 000 1.1l3.3 3.32a.79.79 0 001.11 0 .78.78 0 000-1.1zM184.53 147.79l-.55-.55a.79.79 0 00-1.1 0 .78.78 0 000 1.1l.55.56a.78.78 0 101.1-1.11zM200 143.37a.78.78 0 00-1.1 0l-6.08 6.08a.78.78 0 001.1 1.1l6.08-6.07a.78.78 0 000-1.1zM207.18 159.4a.79.79 0 00-1.1 0l-1.66 1.65a.78.78 0 001.1 1.1l1.66-1.65a.78.78 0 000-1.1zM196.13 125.14l4.42 4.42a.78.78 0 001.1-1.1l-4.41-4.42a.78.78 0 00-1.1 0 .78.78 0 000 1.1zM194.48 126.8l1.1 1.1a.78.78 0 001.1 0 .78.78 0 000-1.1l-1.1-1.1a.79.79 0 00-1.1 0 .78.78 0 000 1.1zM208.29 166.02l2.2 2.21a.78.78 0 101.11-1.1l-2.2-2.21a.78.78 0 00-1.11 0 .78.78 0 000 1.1zM211.6 166.02l.55.55a.78.78 0 001.1-1.1l-.54-.55a.78.78 0 10-1.1 1.1zM281.49 47.24l-4.42-4.42a3.93 3.93 0 00-3.32-1.1l-1.93.27-21.27-21.27a3.91 3.91 0 00-5.52 0L227.35 38.4a3.91 3.91 0 000 5.52l11.6 11.6-6.07 6.08a3.91 3.91 0 000 5.53l1.1 1.1a3.91 3.91 0 005.52 0l6.08-6.08 3.16 3.16-5.78 5-.24.22a4.56 4.56 0 000 6.44l.2.2a4.56 4.56 0 006.65-.24l5-5.78 1.5 1.5a3.91 3.91 0 005.53 0l19.89-19.89a3.91 3.91 0 000-5.52zm-32.04-25.41l21.82 21.82 2.7-.39c.73-.1 1.47.14 2 .66l4.41 4.42c.92.92.92 2.4 0 3.32l-1.65 1.65-31.94-31.93a2.34 2.34 0 012.66.45zm-.55 32.59l-2.22-2.21 9.72-9.72h2.21v2.21l-9.72 9.72zm1.1 3.31l-1.1 1.1-6.63-6.62 1.1-1.1 6.63 6.62zm-14.92 9.4l-1.1-1.11a2.35 2.35 0 010-3.31l8.29-8.3 4.41 4.43-8.28 8.29c-.91.9-2.4.9-3.32 0zm8.94 8.93l-.2-.2a3 3 0 01.16-4.36l15.5-13.44-.2-.51a5.47 5.47 0 016.05-7.4l-3.3 3.3-.06.17c-.03.09-.7 2.13.74 3.56 1.43 1.43 3.47.77 3.56.74l.17-.06 3.3-3.3a5.47 5.47 0 01-7.4 6.05l-.51-.2-13.44 15.5-.14.15a3 3 0 01-4.23 0zm13.16-4.52l-1.58-1.57 6.7-7.72a7.03 7.03 0 008.53-9.47l-.45-1.07-4.76 4.77c-.36.07-1.23.18-1.8-.4-.6-.59-.49-1.46-.41-1.81l4.76-4.77-1.06-.45a7.03 7.03 0 00-9.46 8.54l-7.73 6.7-3.23-3.24 1.1-1.1 1.1 1.1 3.32-3.32-2.21-2.2 10.17-10.18v-4.42h-4.42L245.58 51.1l-2.2-2.2-3.32 3.31 1.1 1.1-1.1 1.1-11.6-11.6a2.35 2.35 0 010-3.3l17.12-17.13 32.04 32.04-17.12 17.12c-.92.92-2.4.92-3.32 0z"/>
    <path d="M278.73 48.9l1.1 1.1-1.1 1.1-1.1-1.1 1.1-1.1zM276.52 46.69l1.1 1.1-1.1 1.1-1.1-1.1 1.1-1.1zM274.3 44.48l1.11 1.1-1.1 1.1-1.1-1.1 1.1-1.1zM245.54 73.56a.78.78 0 100 1.56.78.78 0 000-1.56zM230.11 40.06l5.53 5.52-1.1 1.1-5.53-5.52 1.1-1.1zM232.32 37.85l5.53 5.52-1.1 1.1-5.53-5.52 1.1-1.1zM242.82 57.18l1.1 1.1-1.1 1.11-1.1-1.1 1.1-1.1zM240.6 59.4l1.11 1.1-1.1 1.1-1.1-1.1 1.1-1.1zM238.4 61.6l1.1 1.1-1.1 1.11-1.1-1.1 1.1-1.1zM242.27 27.9l1.1 1.1-1.1 1.11-1.1-1.1-3.32 3.31 1.1 1.1-1.1 1.11-1.1-1.1-3.32 3.31 12.15 12.16 3.31-3.32-1.1-1.1 1.1-1.1 1.11 1.1 3.31-3.32-1.1-1.1 1.1-1.1 1.1 1.1 3.32-3.32-12.15-12.15-3.31 3.31zm3.31 18.79l-9.94-9.95 1.1-1.1 9.94 9.94-1.1 1.1zm1.1-3.32l-7.73-7.73 1.1-1.1 7.74 7.73-1.1 1.1zm3.32-1.1l-9.94-9.95 1.1-1.1 9.94 9.94-1.1 1.1zm1.1-3.32l-7.73-7.73 1.1-1.1 7.74 7.73-1.1 1.1zm-5.52-12.15l9.94 9.94-1.1 1.1-9.94-9.94 1.1-1.1zM113.7 148.76l-13.16-13.17a.74.74 0 10-1.05 1.05l13.17 13.17a.74.74 0 101.05-1.05zM111.03 152.48a.74.74 0 000-1.05l-13.16-13.16a.74.74 0 10-1.05 1.05l13.17 13.16c.29.3.76.3 1.05 0zM95.2 140.94a.74.74 0 00-1.06 1.05l10.16 10.16a.74.74 0 101.05-1.05L95.2 140.94zM104.06 172.57L82.19 150.7a.74.74 0 00-1.05 1.05l21.89 21.88a1.4 1.4 0 010 1.98l-4.35 4.35a1.4 1.4 0 01-1.98 0l-26.68-26.68a1.4 1.4 0 010-1.98l4.35-4.34a1.4 1.4 0 011.98 0l2.7 2.69a.74.74 0 101.04-1.05l-2.7-2.7a2.89 2.89 0 00-4.07 0l-4.35 4.35a2.89 2.89 0 000 4.08L95.64 181a2.89 2.89 0 004.08 0l4.34-4.35a2.89 2.89 0 000-4.08z"/>
    <path d="M73.53 150.46a3.04 3.04 0 104.3 4.29 3.04 3.04 0 00-4.3-4.3zm3.24 3.24a1.55 1.55 0 11-2.2-2.2 1.55 1.55 0 012.2 2.2zM84.82 161.75a4.21 4.21 0 10-5.97-5.95 4.21 4.21 0 005.97 5.95zm-4.9-4.9a2.72 2.72 0 113.85 3.86 2.72 2.72 0 01-3.85-3.86zM104.58 135.66a4.33 4.33 0 106.12-6.13 4.33 4.33 0 00-6.12 6.13zm5.07-5.06a2.84 2.84 0 11-4.02 4 2.84 2.84 0 014.02-4zM90.16 167.09a3.04 3.04 0 10-4.3-4.3 3.04 3.04 0 004.3 4.3zm-3.24-3.24a1.55 1.55 0 112.19 2.2 1.55 1.55 0 01-2.2-2.2z"/>
    <path d="M86.62 148l.8.8-1 4.9a.74.74 0 00.87.88l4.9-1 12.64 12.64a3.65 3.65 0 005.16 0l14.34-14.35a.74.74 0 00-1.05-1.05l-14.34 14.35c-.85.84-2.21.84-3.05 0l-12.94-12.93a.74.74 0 00-.67-.2l-4.18.85.86-4.18a.74.74 0 00-.2-.68l-1.1-1.08a2.16 2.16 0 010-3.05l18.23-18.22c.84-.84 2.2-.84 3.05 0l18.21 18.22c.84.84.84 2.2 0 3.05l-1.77 1.77a.74.74 0 101.05 1.05l1.77-1.77a3.65 3.65 0 000-5.15L110 124.63a3.65 3.65 0 00-5.16 0l-18.21 18.22a3.65 3.65 0 000 5.15zM295.88 122.82a2.2 2.2 0 003.12 3.11 2.2 2.2 0 00-3.12-3.11zm2.08 2.08a.74.74 0 01-1.04 0 .74.74 0 010-1.05.74.74 0 011.04 0c.29.3.29.76 0 1.05zM303.5 130.44a2.2 2.2 0 10-3.12-3.1 2.2 2.2 0 003.12 3.1zm-2.08-2.08a.74.74 0 011.04 0c.3.3.3.76 0 1.04a.74.74 0 01-1.03 0 .74.74 0 010-1.04z"/>
    <path d="M331.1 150.45l-27.03-27.03a.73.73 0 00-1.03 1.03l27.03 27.04c.48.47.48 1.25 0 1.72l-4.45 4.45-33.29-33.28 4.46-4.45a1.22 1.22 0 011.72 0l2.11 2.1a.73.73 0 001.04-1.03l-2.1-2.1a2.69 2.69 0 00-3.8 0l-26.87 26.85a2.69 2.69 0 000 3.8l31.56 31.56a2.69 2.69 0 003.8 0l3.35-3.35a.73.73 0 00-1.04-1.04l-3.35 3.35c-.47.48-1.25.48-1.72 0l-31.56-31.55a1.22 1.22 0 010-1.73l21.37-21.37 33.28 33.28-15.6 15.6a.73.73 0 001.03 1.04l21.1-21.1a2.69 2.69 0 000-3.8z"/>
    <path d="M310.7 155.52l-3.97-3.97a.73.73 0 00-1.03 1.04l3.97 3.97c.66.67 1.75.67 2.41 0l2.77-2.76c.66-.67.66-1.75 0-2.42l-16.16-16.16a1.71 1.71 0 00-2.42 0l-2.76 2.77a1.71 1.71 0 000 2.41l9.77 9.77a.73.73 0 001.04-1.03l-9.77-9.77a.24.24 0 010-.35l2.76-2.76c.1-.1.25-.1.34 0l16.16 16.16c.1.1.1.25 0 .34l-2.76 2.76c-.1.1-.25.1-.35 0zM300.35 149.66a4.84 4.84 0 10-6.84 6.84 4.84 4.84 0 006.84-6.84zm-5.8 5.8a3.37 3.37 0 114.77-4.77 3.37 3.37 0 01-4.77 4.77zM290.75 140.06a4.84 4.84 0 10-5.28 7.88.73.73 0 10.56-1.35 3.37 3.37 0 112.82-.1.73.73 0 10.67 1.3 4.85 4.85 0 001.23-7.73zM285.64 150.7l-4.84-4.84a.73.73 0 00-1.03 1.03l4.83 4.84a.73.73 0 001.04-1.04zM283.56 152.76l-5.52-5.52a.73.73 0 00-1.04 1.03l5.53 5.53a.73.73 0 001.04-1.04zM281.5 154.83l-5.53-5.52a.73.73 0 10-1.04 1.03l5.53 5.53a.73.73 0 001.03-1.04zM295.24 160.29l-4.84-4.83a.73.73 0 00-1.03 1.03l4.83 4.83a.73.73 0 101.04-1.03zM293.16 162.36l-5.52-5.52a.73.73 0 10-1.04 1.04l5.53 5.52a.73.73 0 001.03-1.04zM291.1 164.43l-5.53-5.52a.73.73 0 00-1.04 1.03l5.53 5.53a.73.73 0 001.03-1.04zM304.83 169.89l-4.83-4.84a.73.73 0 00-1.04 1.04l4.84 4.83a.73.73 0 001.03-1.03zM302.76 171.96l-5.52-5.53a.73.73 0 00-1.04 1.04l5.53 5.53a.73.73 0 001.03-1.04zM300.69 174.03l-5.52-5.52a.73.73 0 00-1.04 1.03l5.52 5.53a.73.73 0 101.04-1.04zM3.5 130.44a2.2 2.2 0 10-3.12-3.1 2.2 2.2 0 003.12 3.1zm-2.08-2.08a.74.74 0 011.04 0c.3.3.3.76 0 1.04a.74.74 0 01-1.03 0 .74.74 0 010-1.04zM7.88 134.82a2.2 2.2 0 00-3.12-3.12 2.2 2.2 0 003.12 3.12zm-2.08-2.08a.74.74 0 011.04 0c.29.29.3.76 0 1.04a.74.74 0 01-1.04 0 .74.74 0 010-1.04zM23.98 154.03a2.2 2.2 0 103.11-3.11l-14.56-14.56a2.2 2.2 0 10-3.1 3.1l14.55 14.57zm-13.53-16.64a.74.74 0 011.04 0l14.56 14.57c.3.28.3.75 0 1.03a.74.74 0 01-1.03 0l-14.56-14.56a.74.74 0 010-1.04z"/>
    <path d="M31.1 150.45L4.08 123.42a.73.73 0 00-1.03 1.03l27.03 27.04c.48.47.48 1.25 0 1.72l-4.45 4.45-33.28-33.28 4.45-4.45a1.22 1.22 0 011.73 0l2.1 2.1A.73.73 0 101.66 121l-2.1-2.1a2.69 2.69 0 00-3.8 0l-26.87 26.85a2.69 2.69 0 000 3.8L.45 181.11a2.69 2.69 0 003.8 0l3.35-3.35a.73.73 0 00-1.04-1.04l-3.35 3.35c-.47.48-1.25.48-1.73 0l-31.55-31.55a1.22 1.22 0 010-1.73l21.37-21.37 33.28 33.28-15.6 15.6a.73.73 0 001.03 1.04l21.1-21.1a2.69 2.69 0 000-3.8z"/>
    <path d="M10.7 155.52l-3.97-3.97a.73.73 0 10-1.03 1.04l3.97 3.97c.66.67 1.75.67 2.41 0l2.77-2.76c.66-.67.66-1.75 0-2.42l-16.16-16.16a1.71 1.71 0 00-2.42 0L-6.49 138a1.71 1.71 0 000 2.41l9.77 9.77a.73.73 0 101.04-1.03l-9.78-9.77a.24.24 0 010-.35l2.77-2.76c.1-.1.25-.1.34 0l16.16 16.16c.1.1.1.25 0 .34l-2.76 2.76c-.1.1-.25.1-.35 0zM.35 149.66a4.84 4.84 0 10-6.84 6.85 4.84 4.84 0 006.84-6.85zm-5.8 5.8a3.37 3.37 0 114.77-4.77 3.37 3.37 0 01-4.78 4.77zM9.94 159.25a4.84 4.84 0 10-6.83 6.86 4.84 4.84 0 006.83-6.86zm-5.8 5.8a3.37 3.37 0 114.78-4.76 3.37 3.37 0 01-4.78 4.76zM4.83 169.89L0 165.05a.73.73 0 10-1.04 1.04l4.84 4.83a.73.73 0 001.03-1.03zM2.76 171.96l-5.52-5.53a.73.73 0 10-1.04 1.04L1.73 173a.73.73 0 101.03-1.04zM.7 174.03l-5.53-5.52a.73.73 0 10-1.04 1.03l5.52 5.53a.73.73 0 101.04-1.04z"/>
  </g>
  <defs>
    <clipPath id="clip0">
      <path fill="#fff" d="M0 0h300v200H0z"/>
    </clipPath>
  </defs>
</svg>
