<svg width="60" height="60" viewBox="0 0 60 60" fill="none" xmlns="http://www.w3.org/2000/svg">
<path d="M58.8281 1.20105H1.17187C0.524646 1.20105 0 1.72581 0 2.37292V14.4267C0 15.0738 0.524646 15.5985 1.17187 15.5985H58.8281C59.4754 15.5985 60 15.0738 60 14.4267V2.37292C60 1.72581 59.4754 1.20105 58.8281 1.20105ZM57.6563 13.2548H2.34374V3.54479H57.6563V13.2548Z" fill="#AC9969"/>
<path d="M55.0088 10.593L54.0517 9.63594C54.3129 9.11938 54.452 8.5454 54.452 7.94985C54.452 6.9499 54.0626 6.00959 53.3555 5.30248C51.8958 3.84292 49.5208 3.8428 48.061 5.30248C47.3539 6.00959 46.9645 6.9499 46.9645 7.94985C46.9645 8.94981 47.354 9.89012 48.061 10.5971C48.7682 11.3042 49.7084 11.6936 50.7084 11.6936C51.304 11.6936 51.8779 11.5544 52.3945 11.2933L53.3515 12.2504C53.5804 12.4791 53.8803 12.5936 54.1802 12.5936C54.48 12.5936 54.78 12.4791 55.0088 12.2504C55.4664 11.7928 55.4664 11.0507 55.0088 10.593ZM51.6984 8.93973C51.434 9.20422 51.0824 9.34989 50.7084 9.34989C50.3343 9.34989 49.9829 9.20422 49.7184 8.93973C49.454 8.67524 49.3082 8.3238 49.3082 7.94985C49.3082 7.57591 49.454 7.22423 49.7184 6.95986C49.9913 6.68693 50.3499 6.55052 50.7084 6.55052C51.0668 6.55052 51.4254 6.68693 51.6984 6.95986C51.9627 7.22435 52.1085 7.57591 52.1085 7.94985C52.1085 8.3238 51.9629 8.67536 51.6984 8.93973Z" fill="#AC9969"/>
<path d="M41.9929 10.2926C41.9777 10.2175 41.9554 10.1437 41.9261 10.0735C41.8968 10.0031 41.8605 9.93403 41.8183 9.87075C41.7761 9.80747 41.7269 9.74653 41.673 9.69263C41.6191 9.63872 41.5593 9.5895 41.4949 9.54731C41.4316 9.50513 41.3636 9.4688 41.2921 9.4395C41.2218 9.4102 41.148 9.38794 41.073 9.3727C40.9218 9.34224 40.766 9.34224 40.6148 9.3727C40.5398 9.38794 40.466 9.4102 40.3957 9.4395C40.3253 9.4688 40.2574 9.50513 40.1941 9.54731C40.1296 9.5895 40.0699 9.63872 40.0148 9.69263C39.9609 9.74653 39.9128 9.80735 39.8695 9.87075C39.8273 9.93403 39.791 10.0032 39.7617 10.0735C39.7324 10.1438 39.7101 10.2175 39.6949 10.2926C39.6796 10.3687 39.6726 10.445 39.6726 10.5223C39.6726 10.5984 39.6796 10.6747 39.6949 10.7508C39.7101 10.8258 39.7324 10.8997 39.7617 10.9698C39.791 11.0403 39.8273 11.1082 39.8695 11.1726C39.9128 11.2359 39.9609 11.2968 40.0148 11.3507C40.0699 11.4046 40.1296 11.4539 40.1941 11.496C40.2574 11.5382 40.3253 11.5745 40.3957 11.6038C40.4671 11.6331 40.541 11.6554 40.6148 11.6706C40.691 11.6859 40.7683 11.6929 40.8445 11.6929C40.9207 11.6929 40.998 11.6857 41.073 11.6706C41.148 11.6555 41.2218 11.6331 41.2921 11.6038C41.3624 11.5745 41.4316 11.5382 41.4949 11.496C41.5593 11.4539 41.6191 11.4046 41.673 11.3507C41.891 11.1317 42.0163 10.8305 42.0163 10.5223C42.0163 10.445 42.0081 10.3687 41.9929 10.2926Z" fill="#AC9969"/>
<path d="M36.4015 9.34985H12.0461C11.3989 9.34985 10.8743 9.87462 10.8743 10.5217C10.8743 11.1688 11.3989 11.6936 12.0461 11.6936H36.4015C37.0487 11.6936 37.5733 11.1688 37.5733 10.5217C37.5733 9.87462 37.0487 9.34985 36.4015 9.34985Z" fill="#AC9969"/>
<path d="M36.893 17.2692H1.3103C0.663074 17.2692 0.138428 17.7939 0.138428 18.441V41.5502C0.138428 42.1974 0.663074 42.7221 1.3103 42.7221H36.893C37.5402 42.7221 38.0648 42.1973 38.0648 41.5502V18.441C38.0648 17.7939 37.5402 17.2692 36.893 17.2692ZM14.2741 40.3782H4.32716L11.0262 32.6221L15.8777 38.24L14.2741 40.3782ZM17.2038 40.3782L19.3889 37.4648H25.0711C25.7184 37.4648 26.243 36.9401 26.243 36.2929C26.243 35.6458 25.7184 35.1211 25.0711 35.1211H21.1468L21.969 34.0249H29.327L34.0924 40.3782H17.2038ZM23.7267 31.6812L25.6479 29.1196L27.5692 31.6812H23.7267ZM35.7211 38.6436L26.5854 26.4632C26.3641 26.1681 26.0167 25.9944 25.6479 25.9944C25.2792 25.9944 24.9318 26.1681 24.7104 26.4632L17.3171 36.3208L11.9131 30.0631C11.6906 29.8054 11.3668 29.6571 11.0263 29.6571C10.6857 29.6571 10.3621 29.8054 10.1394 30.0631L2.48217 38.9286V19.6129H35.7211V38.6436Z" fill="#AC9969"/>
<path d="M16.1306 20.9584C13.8461 20.9584 11.9877 22.8169 11.9877 25.1013C11.9877 27.3858 13.8463 29.2443 16.1306 29.2443C18.415 29.2443 20.2735 27.3858 20.2735 25.1013C20.2735 22.8169 18.415 20.9584 16.1306 20.9584ZM16.1306 26.9006C15.1385 26.9006 14.3314 26.0936 14.3314 25.1015C14.3314 24.1094 15.1386 23.3023 16.1306 23.3023C17.1226 23.3023 17.9298 24.1094 17.9298 25.1015C17.9298 26.0936 17.1227 26.9006 16.1306 26.9006Z" fill="#AC9969"/>
<path d="M58.8281 17.2692H40.8176C40.1704 17.2692 39.6458 17.7939 39.6458 18.441V41.5502C39.6458 42.1973 40.1704 42.7221 40.8176 42.7221H58.8281C59.4753 42.7221 60 42.1973 60 41.5502V18.441C60 17.7939 59.4753 17.2692 58.8281 17.2692ZM57.6562 40.3783H41.9895V19.6129H57.6562V40.3783Z" fill="#AC9969"/>
<path d="M54.9278 21.5431H44.718C44.0708 21.5431 43.5461 22.0679 43.5461 22.715C43.5461 23.3621 44.0708 23.8868 44.718 23.8868H54.9278C55.575 23.8868 56.0997 23.3621 56.0997 22.715C56.0997 22.0679 55.575 21.5431 54.9278 21.5431Z" fill="#AC9969"/>
<path d="M54.9278 26.2463H44.718C44.0708 26.2463 43.5461 26.771 43.5461 27.4181C43.5461 28.0653 44.0708 28.59 44.718 28.59H54.9278C55.575 28.59 56.0997 28.0653 56.0997 27.4181C56.0997 26.771 55.575 26.2463 54.9278 26.2463Z" fill="#AC9969"/>
<path d="M54.9278 30.9495H44.718C44.0708 30.9495 43.5461 31.4742 43.5461 32.1213C43.5461 32.7684 44.0708 33.2932 44.718 33.2932H54.9278C55.575 33.2932 56.0997 32.7684 56.0997 32.1213C56.0997 31.4742 55.575 30.9495 54.9278 30.9495Z" fill="#AC9969"/>
<path d="M45.8671 36.5953C45.8519 36.5202 45.8296 36.4464 45.8003 36.3762C45.771 36.3058 45.7347 36.2378 45.6925 36.1735C45.6492 36.1102 45.6011 36.0492 45.546 35.9953C45.2742 35.7235 44.8699 35.598 44.489 35.6754C44.414 35.6906 44.3402 35.7129 44.2699 35.7422C44.1996 35.7715 44.1316 35.8078 44.0671 35.85C44.0039 35.8922 43.9429 35.9414 43.889 35.9953C43.8351 36.0492 43.7859 36.1101 43.7437 36.1735C43.7015 36.2379 43.6652 36.3059 43.6359 36.3762C43.6066 36.4465 43.5843 36.5202 43.5691 36.5953C43.5539 36.6714 43.5457 36.7477 43.5457 36.8237C43.5457 36.9011 43.5539 36.9774 43.5691 37.0534C43.5843 37.1285 43.6066 37.2024 43.6359 37.2727C43.6652 37.3431 43.7015 37.4111 43.7437 37.4754C43.7859 37.5387 43.8351 37.5996 43.889 37.6535C43.9429 37.7074 44.0039 37.7567 44.0671 37.7988C44.1316 37.841 44.1996 37.8774 44.2699 37.9067C44.3402 37.936 44.414 37.9582 44.489 37.9735C44.5652 37.9887 44.6414 37.9969 44.7187 37.9969C45.0269 37.9969 45.3281 37.8715 45.546 37.6534C45.5999 37.5995 45.6492 37.5387 45.6925 37.4753C45.7347 37.4108 45.771 37.3429 45.8003 37.2726C45.8296 37.2022 45.8519 37.1285 45.8671 37.0534C45.8824 36.9774 45.8894 36.9011 45.8894 36.8237C45.8894 36.7477 45.8824 36.6714 45.8671 36.5953Z" fill="#AC9969"/>
<path d="M54.9278 35.6525H49.1605C48.5133 35.6525 47.9886 36.1773 47.9886 36.8244C47.9886 37.4715 48.5133 37.9963 49.1605 37.9963H54.9278C55.575 37.9963 56.0996 37.4715 56.0996 36.8244C56.0996 36.1773 55.575 35.6525 54.9278 35.6525Z" fill="#AC9969"/>
<path d="M19.3208 44.3848H1.3103C0.663074 44.3848 0.138428 44.9095 0.138428 45.5566V57.6271C0.138428 58.2742 0.663074 58.799 1.3103 58.799H19.3208C19.968 58.799 20.4926 58.2742 20.4926 57.6271V45.5566C20.4926 44.9095 19.968 44.3848 19.3208 44.3848ZM18.1489 56.4553H2.48217V46.7285H18.1489V56.4553Z" fill="#AC9969"/>
<path d="M58.8281 44.3848H23.4055C22.7583 44.3848 22.2336 44.9095 22.2336 45.5566V57.6271C22.2336 58.2742 22.7583 58.799 23.4055 58.799H58.8281C59.4753 58.799 60 58.2742 60 57.6271V45.5566C60 44.9095 59.4753 44.3848 58.8281 44.3848ZM57.6562 56.4553H24.5774V46.7285H57.6562V56.4553Z" fill="#AC9969"/>
<path d="M29.9156 51.3633C29.9004 51.2884 29.8781 51.2145 29.8488 51.1442C29.8195 51.0727 29.7832 51.0048 29.741 50.9415C29.6988 50.877 29.6496 50.8172 29.5957 50.7633C29.5418 50.7094 29.482 50.6602 29.4176 50.618C29.3543 50.5759 29.2863 50.5395 29.2149 50.5102C29.1445 50.4809 29.0707 50.4574 28.9957 50.4422C28.8445 50.4129 28.6887 50.4129 28.5375 50.4422C28.4637 50.4574 28.3899 50.4809 28.3184 50.5102C28.2481 50.5395 28.1801 50.5759 28.1168 50.618C28.0524 50.6602 27.9926 50.7094 27.9387 50.7633C27.8848 50.8172 27.8356 50.877 27.7922 50.9415C27.75 51.0048 27.7137 51.0727 27.6844 51.1442C27.6551 51.2146 27.6328 51.2883 27.6176 51.3633C27.6024 51.4383 27.5953 51.5156 27.5953 51.5918C27.5953 51.6679 27.6024 51.7453 27.6176 51.8203C27.6328 51.8952 27.6551 51.969 27.6844 52.0405C27.7137 52.1108 27.75 52.1788 27.7922 52.2421C27.8356 52.3065 27.8848 52.3663 27.9387 52.4202C28.1567 52.6382 28.459 52.7637 28.7672 52.7637C28.8434 52.7637 28.9207 52.7565 28.9957 52.7414C29.0707 52.7262 29.1445 52.7027 29.2149 52.6734C29.2863 52.6441 29.3543 52.609 29.4176 52.5656C29.482 52.5236 29.5418 52.4743 29.5957 52.4203C29.6496 52.3664 29.6988 52.3066 29.741 52.2422C29.7832 52.1789 29.8195 52.1109 29.8488 52.0406C29.8781 51.9691 29.9004 51.8953 29.9156 51.8203C29.9309 51.7452 29.9391 51.6679 29.9391 51.5918C29.9391 51.5156 29.9309 51.4382 29.9156 51.3633Z" fill="#AC9969"/>
<path d="M52.8888 50.42H33.2095C32.5623 50.42 32.0377 50.9447 32.0377 51.5919C32.0377 52.239 32.5623 52.7637 33.2095 52.7637H52.8888C53.536 52.7637 54.0606 52.239 54.0606 51.5919C54.0606 50.9447 53.536 50.42 52.8888 50.42Z" fill="#AC9969"/>
</svg>
