<svg width="61" height="60" viewBox="0 0 61 60" fill="none" xmlns="http://www.w3.org/2000/svg">
<g clip-path="url(#clip0)">
<path d="M3.86804 10.4297C3.86804 11.8836 5.0574 13.0664 6.51927 13.0664C7.98114 13.0664 9.17039 11.8836 9.17039 10.4297C9.17039 8.97574 7.98114 7.79297 6.51927 7.79297C5.0574 7.79297 3.86804 8.97574 3.86804 10.4297V10.4297ZM7.40768 10.4297C7.40768 10.9144 7.00907 11.3086 6.51915 11.3086C6.02924 11.3086 5.63075 10.9144 5.63075 10.4297C5.63075 9.945 6.02936 9.55078 6.51927 9.55078C7.00919 9.55078 7.40768 9.945 7.40768 10.4297Z" fill="#665221"/>
<path d="M16.8397 10.4297C16.8397 8.97574 15.6503 7.79297 14.1885 7.79297C12.7266 7.79297 11.5374 8.97574 11.5374 10.4297C11.5374 11.8836 12.7267 13.0664 14.1886 13.0664C15.6505 13.0664 16.8397 11.8836 16.8397 10.4297ZM13.3001 10.4297C13.3001 9.945 13.6987 9.55078 14.1886 9.55078C14.6785 9.55078 15.0771 9.945 15.0771 10.4297C15.0771 10.9144 14.6785 11.3086 14.1886 11.3086C13.6987 11.3086 13.3001 10.9144 13.3001 10.4297V10.4297Z" fill="#665221"/>
<path d="M24.2879 10.4297C24.2879 8.97574 23.0985 7.79297 21.6366 7.79297C20.1748 7.79297 18.9854 8.97574 18.9854 10.4297C18.9854 11.8836 20.1748 13.0664 21.6366 13.0664C23.0985 13.0664 24.2879 11.8836 24.2879 10.4297ZM20.7481 10.4297C20.7481 9.945 21.1467 9.55078 21.6366 9.55078C22.1266 9.55078 22.5252 9.945 22.5252 10.4297C22.5252 10.9144 22.1266 11.3086 21.6366 11.3086C21.1467 11.3086 20.7481 10.9144 20.7481 10.4297Z" fill="#665221"/>
<path d="M54.3343 13.0664C55.7961 13.0664 56.9855 11.8836 56.9855 10.4297C56.9855 8.97574 55.7962 7.79297 54.3343 7.79297H29.5566C28.0948 7.79297 26.9054 8.97574 26.9054 10.4297C26.9054 11.8836 28.0948 13.0664 29.5566 13.0664H54.3343ZM28.6681 10.4297C28.6681 9.945 29.0667 9.55078 29.5566 9.55078H54.3343C54.8242 9.55078 55.2228 9.945 55.2228 10.4297C55.2228 10.9144 54.8242 11.3086 54.3343 11.3086H29.5566C29.0667 11.3086 28.6681 10.9144 28.6681 10.4297Z" fill="#665221"/>
<path d="M57.3533 3.98438H11.3466C10.8599 3.98438 10.4653 4.37789 10.4653 4.86328C10.4653 5.34867 10.8599 5.74219 11.3466 5.74219H57.3533C58.1634 5.74219 58.8223 6.39926 58.8223 7.20703V14.7656H2.18056V7.20703C2.18056 6.39926 2.83946 5.74219 3.64948 5.74219H7.23365C7.7204 5.74219 8.11501 5.34867 8.11501 4.86328C8.11501 4.37789 7.7204 3.98438 7.23365 3.98438H3.64948C1.8675 3.98438 0.417847 5.43 0.417847 7.20703V52.793C0.417847 54.57 1.8675 56.0156 3.64948 56.0156H57.3533C59.1353 56.0156 60.585 54.57 60.585 52.793V47.1094C60.585 46.624 60.1905 46.2305 59.7036 46.2305C59.2168 46.2305 58.8223 46.624 58.8223 47.1094V52.793C58.8223 53.6007 58.1634 54.2578 57.3533 54.2578H3.64948C2.83946 54.2578 2.18056 53.6007 2.18056 52.793V16.5234H58.8223V43.0078C58.8223 43.4932 59.2168 43.8867 59.7036 43.8867C60.1905 43.8867 60.585 43.4932 60.585 43.0078V7.20703C60.585 5.43 59.1352 3.98438 57.3533 3.98438Z" fill="#665221"/>
<path d="M44.3093 25.6055H37.5522C37.0654 25.6055 36.6709 25.999 36.6709 26.4844C36.6709 26.9698 37.0654 27.3633 37.5522 27.3633H44.3093C45.4432 27.3633 46.3658 26.4432 46.3658 25.3125V20.625C46.3658 19.4943 45.4432 18.5742 44.3093 18.5742H16.811C15.6771 18.5742 14.7545 19.4943 14.7545 20.625V25.3125C14.7545 26.4432 15.6771 27.3633 16.811 27.3633H33.4392C33.9261 27.3633 34.3206 26.9698 34.3206 26.4844C34.3206 25.999 33.9261 25.6055 33.4392 25.6055H16.811C16.6491 25.6055 16.5172 25.474 16.5172 25.3125V20.625C16.5172 20.4635 16.6491 20.332 16.811 20.332H44.3093C44.4713 20.332 44.6031 20.4635 44.6031 20.625V25.3125C44.6031 25.474 44.4713 25.6055 44.3093 25.6055Z" fill="#665221"/>
<path d="M30.5014 29.4141C27.294 29.4141 24.6844 32.0163 24.6844 35.2148C24.6844 38.4134 27.294 41.0156 30.5014 41.0156C33.7088 41.0156 36.3183 38.4134 36.3183 35.2148C36.3183 32.0163 33.7088 29.4141 30.5014 29.4141ZM30.5014 39.2578C28.2659 39.2578 26.4472 37.4441 26.4472 35.2148C26.4472 32.9856 28.2659 31.1719 30.5014 31.1719C32.7369 31.1719 34.5556 32.9856 34.5556 35.2148C34.5556 37.4441 32.7369 39.2578 30.5014 39.2578Z" fill="#665221"/>
<path d="M46.8359 29.4141C43.6284 29.4141 41.0189 32.0163 41.0189 35.2148C41.0189 38.4134 43.6284 41.0156 46.8359 41.0156C50.0433 41.0156 52.6528 38.4134 52.6528 35.2148C52.6528 32.0163 50.0433 29.4141 46.8359 29.4141ZM46.8359 39.2578C44.6004 39.2578 42.7816 37.4441 42.7816 35.2148C42.7816 32.9856 44.6004 31.1719 46.8359 31.1719C49.0713 31.1719 50.8901 32.9856 50.8901 35.2148C50.8901 37.4441 49.0713 39.2578 46.8359 39.2578Z" fill="#665221"/>
<path d="M14.167 29.4141C10.9596 29.4141 8.35004 32.0163 8.35004 35.2148C8.35004 38.4134 10.9596 41.0156 14.167 41.0156C14.9356 41.0156 15.6828 40.8682 16.388 40.5776C16.8378 40.3921 17.0517 39.8782 16.8658 39.4296C16.6798 38.9809 16.1645 38.7676 15.7146 38.9531C15.224 39.1553 14.7033 39.2578 14.167 39.2578C11.9315 39.2578 10.1127 37.4441 10.1127 35.2148C10.1127 32.9856 11.9315 31.1719 14.167 31.1719C16.4024 31.1719 18.2212 32.9856 18.2212 35.2148C18.2212 35.6423 18.1548 36.0629 18.0239 36.4649C17.8736 36.9266 18.127 37.4223 18.59 37.5723C19.0531 37.7223 19.5502 37.4694 19.7005 37.0078C19.8886 36.4302 19.9839 35.8269 19.9839 35.2148C19.9839 32.0163 17.3744 29.4141 14.167 29.4141Z" fill="#665221"/>
<path d="M18.8675 42.7734H10.6415C10.1548 42.7734 9.76019 43.167 9.76019 43.6523C9.76019 44.1377 10.1548 44.5312 10.6415 44.5312H18.8675C19.3543 44.5312 19.7489 44.1377 19.7489 43.6523C19.7489 43.167 19.3543 42.7734 18.8675 42.7734Z" fill="#665221"/>
<path d="M18.8676 46.2891H9.46644C8.97969 46.2891 8.58508 46.6826 8.58508 47.168C8.58508 47.6534 8.97969 48.0469 9.46644 48.0469H18.8676C19.3543 48.0469 19.7489 47.6534 19.7489 47.168C19.7489 46.6826 19.3543 46.2891 18.8676 46.2891Z" fill="#665221"/>
<path d="M18.8676 49.8047H9.46644C8.97969 49.8047 8.58508 50.1982 8.58508 50.6836C8.58508 51.169 8.97969 51.5625 9.46644 51.5625H18.8676C19.3543 51.5625 19.7489 51.169 19.7489 50.6836C19.7489 50.1982 19.3543 49.8047 18.8676 49.8047Z" fill="#665221"/>
<path d="M35.2019 42.7734H26.976C26.4892 42.7734 26.0946 43.167 26.0946 43.6523C26.0946 44.1377 26.4892 44.5312 26.976 44.5312H35.2019C35.6888 44.5312 36.0833 44.1377 36.0833 43.6523C36.0833 43.167 35.6888 42.7734 35.2019 42.7734Z" fill="#665221"/>
<path d="M35.202 46.2891H25.8008C25.3141 46.2891 24.9195 46.6826 24.9195 47.168C24.9195 47.6534 25.3141 48.0469 25.8008 48.0469H35.202C35.6888 48.0469 36.0833 47.6534 36.0833 47.168C36.0833 46.6826 35.6888 46.2891 35.202 46.2891Z" fill="#665221"/>
<path d="M35.202 49.8047H25.8008C25.3141 49.8047 24.9195 50.1982 24.9195 50.6836C24.9195 51.169 25.3141 51.5625 25.8008 51.5625H35.202C35.6888 51.5625 36.0833 51.169 36.0833 50.6836C36.0833 50.1982 35.6888 49.8047 35.202 49.8047Z" fill="#665221"/>
<path d="M51.5364 42.7734H43.3104C42.8236 42.7734 42.4291 43.167 42.4291 43.6523C42.4291 44.1377 42.8236 44.5312 43.3104 44.5312H51.5364C52.0233 44.5312 52.4178 44.1377 52.4178 43.6523C52.4178 43.167 52.0233 42.7734 51.5364 42.7734Z" fill="#665221"/>
<path d="M51.5364 46.2891H42.1353C41.6484 46.2891 41.2539 46.6826 41.2539 47.168C41.2539 47.6534 41.6484 48.0469 42.1353 48.0469H51.5364C52.0232 48.0469 52.4177 47.6534 52.4177 47.168C52.4177 46.6826 52.0232 46.2891 51.5364 46.2891Z" fill="#665221"/>
<path d="M51.5364 49.8047H42.1353C41.6484 49.8047 41.2539 50.1982 41.2539 50.6836C41.2539 51.169 41.6484 51.5625 42.1353 51.5625H51.5364C52.0232 51.5625 52.4177 51.169 52.4177 50.6836C52.4177 50.1982 52.0232 49.8047 51.5364 49.8047Z" fill="#665221"/>
</g>
<defs>
<clipPath id="clip0">
<rect width="60.1671" height="60" fill="white" transform="translate(0.417847)"/>
</clipPath>
</defs>
</svg>
